HIERARCHY
ROOT Hips
{
	OFFSET	0.00	0.00	0.00
	CHANNELS 6 Xposition Yposition Zposition Zrotation Xrotation Yrotation
	JOINT LeftUpLeg
	{
		OFFSET	 0.126116	-0.014019	-0.065224
		CHANNELS 3 Zrotation Xrotation Yrotation
		JOINT LeftLeg
		{
			OFFSET	 0.000000	 0.000000	 0.569914
			CHANNELS 3 Zrotation Xrotation Yrotation
			JOINT LeftFoot
			{
				OFFSET	 0.000000	 0.000000	 0.544423
				CHANNELS 3 Zrotation Xrotation Yrotation
				JOINT LeftToeBase
				{
					OFFSET	 0.000000	 0.000000	 0.207117
					CHANNELS 3 Zrotation Xrotation Yrotation
					End Site
					{
						OFFSET	 0.000000	 0.000000	 0.207117
					}
				}
			}
		}
	}
	JOINT RightUpLeg
	{
		OFFSET	-0.124023	-0.008373	-0.065224
		CHANNELS 3 Zrotation Xrotation Yrotation
		JOINT RightLeg
		{
			OFFSET	 0.000000	 0.000000	 0.570047
			CHANNELS 3 Zrotation Xrotation Yrotation
			JOINT RightFoot
			{
				OFFSET	 0.000000	 0.000000	 0.544354
				CHANNELS 3 Zrotation Xrotation Yrotation
				JOINT RightToeBase
				{
					OFFSET	 0.000000	 0.000000	 0.207540
					CHANNELS 3 Zrotation Xrotation Yrotation
					End Site
					{
						OFFSET	 0.000000	 0.000000	 0.207540
					}
				}
			}
		}
	}
	JOINT Spine
	{
		OFFSET	 0.000184	-0.007763	 0.117403
		CHANNELS 3 Zrotation Xrotation Yrotation
		JOINT Spine1
		{
			OFFSET	 0.000000	 0.000000	 0.137269
			CHANNELS 3 Zrotation Xrotation Yrotation
			JOINT Spine2
			{
				OFFSET	 0.000000	 0.000000	 0.156879
				CHANNELS 3 Zrotation Xrotation Yrotation
				JOINT LeftShoulder
				{
					OFFSET	 0.080501	-0.002496	 0.160144
					CHANNELS 3 Zrotation Xrotation Yrotation
					JOINT LeftArm
					{
						OFFSET	 0.000000	 0.000000	 0.164363
						CHANNELS 3 Zrotation Xrotation Yrotation
						JOINT LeftForeArm
						{
							OFFSET	 0.000000	 0.000000	 0.364576
							CHANNELS 3 Zrotation Xrotation Yrotation
							JOINT LeftHand
							{
								OFFSET	 0.000000	 0.000000	 0.360812
								CHANNELS 3 Zrotation Xrotation Yrotation
								JOINT LeftHandIndex1
								{
									OFFSET	 0.000000	 0.000000	 0.086006
									CHANNELS 3 Zrotation Xrotation Yrotation
									JOINT LeftHandIndex2
									{
										OFFSET	 0.000000	 0.000000	 0.047236
										CHANNELS 3 Zrotation Xrotation Yrotation
										JOINT LeftHandIndex3
										{
											OFFSET	-0.004284	-0.000551	 0.038166
											CHANNELS 3 Zrotation Xrotation Yrotation
											End Site
											{
												OFFSET	-0.004284	-0.000551	 0.038166
											}
										}
									}
								}
							}
						}
					}
				}
				JOINT Neck
				{
					OFFSET	 0.000000	 0.000000	 0.176489
					CHANNELS 3 Zrotation Xrotation Yrotation
					JOINT Head
					{
						OFFSET	 0.000000	-0.001747	 0.077940
						CHANNELS 3 Zrotation Xrotation Yrotation
						End Site
						{
							OFFSET	 0.000000	-0.001747	 0.077940
						}
					}
				}
				JOINT RightShoulder
				{
					OFFSET	-0.080363	 0.000306	 0.159706
					CHANNELS 3 Zrotation Xrotation Yrotation
					JOINT RightArm
					{
						OFFSET	 0.000000	 0.000000	 0.164196
						CHANNELS 3 Zrotation Xrotation Yrotation
						JOINT RightForeArm
						{
							OFFSET	 0.000000	 0.000000	 0.365611
							CHANNELS 3 Zrotation Xrotation Yrotation
							JOINT RightHand
							{
								OFFSET	 0.000000	 0.000000	 0.360648
								CHANNELS 3 Zrotation Xrotation Yrotation
								JOINT RightHandIndex1
								{
									OFFSET	 0.000000	 0.000000	 0.069977
									CHANNELS 3 Zrotation Xrotation Yrotation
									JOINT RightHandIndex2
									{
										OFFSET	 0.000000	 0.000000	 0.052305
										CHANNELS 3 Zrotation Xrotation Yrotation
										JOINT RightHandIndex3
										{
											OFFSET	 0.009002	-0.000782	 0.042196
											CHANNELS 3 Zrotation Xrotation Yrotation
											End Site
											{
												OFFSET	 0.009002	-0.000782	 0.042196
											}
										}
									}
								}
							}
						}
					}
				}
			}
		}
	}
}
MOTION
Frames:    11
Frame Time: 0.03333334
 0.000056	 0.019648	 1.272442	-0.002862	 0.007098	 0.099026	-8.750741	-1.684888	 179.175300	 1.469071	-12.289070	-0.718035	-5.035402	 71.422450	-1.280855	-2.385833	 28.452760	 0.000004	 8.626565	-1.931960	-179.303900	-1.456147	-12.259140	 0.703063	 4.900408	 71.233950	 1.258908	 2.384658	 28.388730	 0.000004	-2.587544	 2.711029	 0.189051	-1.111926	 3.676960	-0.413497	 3.379421	-4.649196	 0.730462	-91.776170	 78.527470	 180.000000	 57.255680	 39.848000	-63.295300	-8.495826	 0.192013	-0.702840	-31.568340	-19.160650	-4.828861	-2.635965	 4.993658	 6.788941	-5.165319	 0.784187	 3.516649	-5.225038	 0.466231	 0.424329	-0.000002	-3.783157	-0.089647	 3.285344	 4.946191	-0.141948	 89.782160	 78.203920	 179.999900	-64.387280	 42.008750	 55.972070	 7.512547	 5.841676	 13.600970	 32.466310	-19.882800	 9.640858	 6.112037	 4.509576	-0.364401	 4.968462	 1.518543	-9.347576	 5.168945	 0.703820	 2.021906
 0.000060	 0.019588	 1.273437	-0.002862	 0.007098	 0.099026	-8.659575	-1.687016	 179.168400	 1.469072	-12.289070	-0.718032	-5.044283	 71.257170	-1.269112	-2.385833	 28.452760	 0.000004	 8.535358	-1.933870	-179.297400	-1.456145	-12.259140	 0.703065	 4.907911	 71.068910	 1.248635	 2.384658	 28.388730	 0.000004	-2.906893	 2.711028	 0.189051	-1.111926	 3.676948	-0.413509	 3.379428	-4.649190	 0.730468	-91.776180	 78.527450	 180.000000	 57.206010	 39.834950	-63.219970	-8.779153	 0.197928	-0.907442	-32.372360	-21.387970	-5.144137	-2.635965	 4.993658	 6.788941	-5.165319	 0.784187	 3.516649	-5.225038	 0.466231	 0.424329	-0.000002	-3.783157	-0.089647	 3.285343	 4.946192	-0.141948	 89.782090	 78.203890	 180.000000	-64.107790	 41.647600	 56.808910	 7.400529	 5.708590	 13.573940	 33.426340	-22.322950	 9.886667	 6.112037	 4.509576	-0.364401	 4.968462	 1.518543	-9.347576	 5.168945	 0.703820	 2.021906
 0.000067	 0.019508	 1.274804	-0.002875	 0.007091	 0.099020	-8.536314	-1.689716	 179.159100	 1.469073	-12.288690	-0.718011	-5.055667	 71.033790	-1.253735	-2.385833	 28.452760	 0.000004	 8.412092	-1.936357	-179.288700	-1.456148	-12.258920	 0.703052	 4.917541	 70.845860	 1.235160	 2.384658	 28.388730	 0.000004	-3.372197	 2.711028	 0.189056	-1.111920	 3.676961	-0.413516	 3.379426	-4.649190	 0.730471	-91.776180	 78.527490	 180.000000	 57.121100	 39.812360	-63.091000	-9.189474	 0.209991	-1.205002	-33.580400	-24.544220	-5.706560	-2.635965	 4.993658	 6.788941	-5.165319	 0.784187	 3.516649	-5.225038	 0.466231	 0.424329	-0.000002	-3.783157	-0.089647	 3.285343	 4.946192	-0.141948	 89.782130	 78.203870	 180.000000	-63.569060	 40.898170	 58.261810	 7.116449	 5.534257	 13.637590	 34.973610	-25.922610	 10.314550	 6.112037	 4.509576	-0.364401	 4.968462	 1.518543	-9.347576	 5.168945	 0.703820	 2.021906
 0.000074	 0.019431	 1.276186	-0.002876	 0.007093	 0.099018	-8.412041	-1.692722	 179.149700	 1.469073	-12.288820	-0.718019	-5.066654	 70.809040	-1.238575	-2.385833	 28.452760	 0.000004	 8.287800	-1.939004	-179.279800	-1.456146	-12.258950	 0.703051	 4.926758	 70.621410	 1.221932	 2.384658	 28.388730	 0.000004	-3.876596	 2.711026	 0.189059	-1.111918	 3.676959	-0.413512	 3.379423	-4.649191	 0.730469	-91.776170	 78.527430	 180.000000	 57.010930	 39.781140	-62.922050	-9.632109	 0.228416	-1.528719	-34.938010	-27.781370	-6.448237	-2.635965	 4.993658	 6.788941	-5.165319	 0.784187	 3.516649	-5.225038	 0.466231	 0.424329	-0.000002	-3.783157	-0.089647	 3.285344	 4.946191	-0.141948	 89.782100	 78.203890	 180.000000	-62.456150	 39.877540	 59.291550	 6.539175	 5.859971	 15.037610	 36.694610	-29.673700	 10.935440	 6.112037	 4.509576	-0.364401	 4.968462	 1.518543	-9.347576	 5.168945	 0.703820	 2.021906
 0.000080	 0.019363	 1.277540	-0.002863	 0.007100	 0.099024	-8.289955	-1.695684	 179.140500	 1.469071	-12.288930	-0.718025	-5.076902	 70.588480	-1.224104	-2.385833	 28.452760	 0.000004	 8.165658	-1.941648	-179.271200	-1.456149	-12.259020	 0.703056	 4.935316	 70.401100	 1.209315	 2.384658	 28.388730	 0.000004	-4.404044	 2.711026	 0.189052	-1.111926	 3.676947	-0.413502	 3.379429	-4.649189	 0.730465	-91.776230	 78.527490	-180.000000	 56.872340	 39.741950	-62.709900	-10.094270	 0.253183	-1.867236	-36.403690	-30.879660	-7.354125	-2.635965	 4.993658	 6.788941	-5.165319	 0.784187	 3.516649	-5.225038	 0.466231	 0.424329	-0.000002	-3.783157	-0.089647	 3.285344	 4.946191	-0.141948	 89.782070	 78.203850	-180.000000	-60.725080	 38.567840	 60.150100	 5.553350	 6.483623	 17.496930	 38.094990	-33.403810	 11.563630	 6.112037	 4.509576	-0.364401	 4.968462	 1.518543	-9.347576	 5.168945	 0.703820	 2.021906
 0.000087	 0.019303	 1.278895	-0.002866	 0.007104	 0.099024	-8.169413	-1.698473	 179.131400	 1.469075	-12.288720	-0.718013	-5.086378	 70.370820	-1.210315	-2.385833	 28.452760	 0.000004	 8.045126	-1.944212	-179.262700	-1.456148	-12.258930	 0.703052	 4.943263	 70.183780	 1.197236	 2.384658	 28.388730	 0.000004	-4.953205	 2.711022	 0.189052	-1.111924	 3.676952	-0.413498	 3.379420	-4.649191	 0.730463	-91.776210	 78.527490	-180.000000	 56.704440	 39.687030	-62.448180	-10.659900	 0.285609	-2.221640	-37.865160	-33.695600	-8.387652	-2.635965	 4.993658	 6.788941	-5.165319	 0.784187	 3.516649	-5.225038	 0.466231	 0.424329	-0.000002	-3.783157	-0.089647	 3.285343	 4.946192	-0.141948	 89.782100	 78.203870	 180.000000	-58.721220	 37.141990	 62.787560	 4.428517	 6.208819	 18.024900	 39.033190	-37.022750	 12.065030	 6.112037	 4.509576	-0.364401	 4.968462	 1.518543	-9.347576	 5.168945	 0.703820	 2.021906
 0.000093	 0.019249	 1.280113	-0.002862	 0.007098	 0.099026	-8.057790	-1.701331	 179.123000	 1.469070	-12.289070	-0.718035	-5.094842	 70.169710	-1.197756	-2.385833	 28.452760	 0.000004	 7.933474	-1.946728	-179.254800	-1.456147	-12.259160	 0.703065	 4.950256	 69.982900	 1.186302	 2.384658	 28.388730	 0.000004	-5.485054	 2.711029	 0.189051	-1.111926	 3.676949	-0.413505	 3.379429	-4.649190	 0.730465	-91.776190	 78.527470	-180.000000	 56.519350	 39.628940	-62.162020	-11.148370	 0.321942	-2.563131	-39.337890	-35.956190	-9.455877	-2.635965	 4.993658	 6.788941	-5.165319	 0.784187	 3.516649	-5.225038	 0.466231	 0.424329	-0.000002	-3.783157	-0.089647	 3.285343	 4.946192	-0.141948	 89.782100	 78.203870	 180.000000	-56.608520	 35.716430	 66.181000	 3.236174	 5.500296	 17.431450	 39.511480	-40.129660	 12.404240	 6.112037	 4.509576	-0.364401	 4.968462	 1.518543	-9.347576	 5.168945	 0.703820	 2.021906
 0.000101	 0.019184	 1.281383	-0.002863	 0.007100	 0.099024	-7.929800	-1.704369	 179.113400	 1.469073	-12.288920	-0.718026	-5.103886	 69.939050	-1.183892	-2.385833	 28.452760	 0.000004	 7.805493	-1.949455	-179.245700	-1.456146	-12.259030	 0.703057	 4.957758	 69.752590	 1.174180	 2.384658	 28.388730	 0.000004	-6.119245	 2.711027	 0.189052	-1.111925	 3.676949	-0.413513	 3.379424	-4.649189	 0.730469	-91.776150	 78.527490	 180.000000	 56.283050	 39.544150	-61.789770	-11.733440	 0.373742	-2.973001	-41.011820	-37.939950	-10.707620	-2.635965	 4.993658	 6.788941	-5.165319	 0.784187	 3.516649	-5.225038	 0.466231	 0.424329	-0.000002	-3.783157	-0.089647	 3.285343	 4.946192	-0.141948	 89.782020	 78.203890	-180.000000	-53.572620	 33.945630	 69.326040	 1.530604	 5.113351	 18.092370	 39.659590	-43.055910	 12.641330	 6.112037	 4.509576	-0.364401	 4.968462	 1.518543	-9.347576	 5.168945	 0.703820	 2.021906
 0.000109	 0.019125	 1.282412	-0.002863	 0.007100	 0.099024	-7.814569	-1.707183	 179.104700	 1.469073	-12.288920	-0.718026	-5.111594	 69.731720	-1.171720	-2.385833	 28.452760	 0.000004	 7.690262	-1.952041	-179.237600	-1.456143	-12.259140	 0.703064	 4.964111	 69.545550	 1.163537	 2.384658	 28.388730	 0.000004	-6.709351	 2.711026	 0.189052	-1.111923	 3.676951	-0.413521	 3.379419	-4.649185	 0.730473	-91.776210	 78.527430	-180.000000	 56.036020	 39.452560	-61.397270	-12.280990	 0.431306	-3.359353	-42.399790	-39.000100	-11.738410	-2.635965	 4.993658	 6.788941	-5.165319	 0.784187	 3.516649	-5.225038	 0.466231	 0.424329	-0.000002	-3.783157	-0.089647	 3.285343	 4.946192	-0.141948	 89.782050	 78.203900	-180.000000	-50.433620	 32.032270	 73.001610	 0.005777	 4.465085	 17.691420	 39.033680	-44.838380	 12.477330	 6.112037	 4.509576	-0.364401	 4.968462	 1.518543	-9.347576	 5.168945	 0.703820	 2.021906
 0.000117	 0.019048	 1.283436	-0.002868	 0.007098	 0.099026	-7.688169	-1.710178	 179.095200	 1.469077	-12.288700	-0.718010	-5.119551	 69.504290	-1.158776	-2.385833	 28.452760	 0.000004	 7.563830	-1.954729	-179.228700	-1.456147	-12.258930	 0.703052	 4.970566	 69.318460	 1.152256	 2.384658	 28.388730	 0.000004	-7.373475	 2.711027	 0.189049	-1.111921	 3.676954	-0.413516	 3.379424	-4.649189	 0.730472	-91.776260	 78.527490	-179.999900	 55.738270	 39.334520	-60.920690	-12.902200	 0.503470	-3.792344	-43.649490	-39.193340	-12.597500	-2.635965	 4.993658	 6.788941	-5.165319	 0.784187	 3.516649	-5.225038	 0.466231	 0.424329	-0.000002	-3.783157	-0.089647	 3.285343	 4.946192	-0.141948	 89.782070	 78.203890	-180.000000	-46.971140	 29.847530	 78.488560	-1.628228	 3.179891	 14.764810	 37.638830	-45.714040	 11.816080	 6.112037	 4.509576	-0.364401	 4.968462	 1.518543	-9.347576	 5.168945	 0.703820	 2.021906
 0.000123	 0.018932	 1.284375	-0.002862	 0.007098	 0.099026	-7.559596	-1.713475	 179.085600	 1.469074	-12.288930	-0.718025	-5.127156	 69.273510	-1.145905	-2.385833	 28.452760	 0.000004	 7.435280	-1.957648	-179.219600	-1.456146	-12.259040	 0.703057	 4.976732	 69.087920	 1.141065	 2.384658	 28.388730	 0.000004	-8.061370	 2.711030	 0.189051	-1.111926	 3.676951	-0.413518	 3.379426	-4.649189	 0.730472	-91.776180	 78.527490	 180.000000	 55.407770	 39.198950	-60.386620	-13.552140	 0.589569	-4.245681	-44.486130	-38.191020	-13.008780	-2.635965	 4.993658	 6.788941	-5.165319	 0.784187	 3.516649	-5.225038	 0.466231	 0.424329	-0.000002	-3.783157	-0.089647	 3.285344	 4.946191	-0.141948	 89.782130	 78.203870	 180.000000	-43.565640	 27.592340	 85.111760	-3.412651	 1.651506	 9.717246	 35.516070	-45.235530	 10.539160	 6.112037	 4.509576	-0.364401	 4.968462	 1.518543	-9.347576	 5.168945	 0.703820	 2.021906
